# xmcd
#
# Track frame offsets:
#   150
#   26008
#   41941
#   63663
#   85420
#   103668
#   124362
#   144423
#   164117
#   182951
#   202739
#   221834
#   241691
#   260705
#   283195
#
# Disc length: 3980 seconds
#
# Revision: 0
# Processed by: cddbd v1.4PL0 Copyright (c) Steve Scherf et al.
# Submitted via: CD-Datenbank 4.*
#
DISCID=f10f8a0f
DTITLE=Celine Dion - The Colour of my Love
DYEAR=1993
DGENRE=Easy Listening
TTITLE0=The Power of Love
TTITLE1=Misled
TTITLE2=Think Twice
TTITLE3=Only One Road
TTITLE4=Everybody's Talkin' my Baby down
TTITLE5=Next Plane Out
TTITLE6=Real Emotion
TTITLE7=When I fall in Love
TTITLE8=Love doesn't ask why
TTITLE9=Refuse to Dance
TTITLE10=I Remember L.A.
TTITLE11=No Living without loving you
TTITLE12=Lovin' Proof
TTITLE13=Just walk away
TTITLE14=The Colour of my Love
EXTD=
EXTT0=
EXTT1=
EXTT2=
EXTT3=
EXTT4=
EXTT5=
EXTT6=
EXTT7=
EXTT8=
EXTT9=
EXTT10=
EXTT11=
EXTT12=
EXTT13=
EXTT14=
PLAYORDER=
